<svg xmlns="http://www.w3.org/2000/svg" viewBox="0 0 512 512" role="img" aria-label="SpecPilot AI">
  <rect width="512" height="512" rx="96" fill="#16231d"/>
  <path d="M126 312c24 42 68 68 124 68 66 0 114-33 114-82 0-46-33-67-103-82-47-10-66-19-66-40 0-20 19-35 52-35 35 0 59 15 73 43l39-22c-21-43-59-65-111-65-58 0-101 32-101 80 0 45 32 68 96 82 52 11 73 20 73 42 0 22-24 36-64 36-39 0-70-17-88-47l-38 22Z" fill="#f5fbf6"/>
  <path d="M322 124h49c52 0 87 31 87 78s-35 78-87 78h-49V124Zm47 114c26 0 43-14 43-36s-17-36-43-36h-4v72h4Z" fill="#7ddbd1"/>
</svg>
